<svg version="1.2" xmlns="http://www.w3.org/2000/svg" viewBox="0 0 25 28" width="25" height="28">
	<title>somnia-logo-light</title>
	<defs>
		<clipPath clipPathUnits="userSpaceOnUse" id="cp1">
			<path d="m11.94 28c6.59 0.03 12.01-5.31 12.06-11.9q0.01-1.99-0.58-3.78c-2.83 0.23-5.6 1.43-7.77 3.6-2.36 2.35-3.57 5.41-3.65 8.5 0 0.23-0.3 0.31-0.43 0.12-1.55-2.31-4.18-3.82-7.16-3.82q-1.69 0-3.17 0.6c1.95 3.94 6.01 6.66 10.7 6.68zm0.06-20.41c0.01-0.23 0.31-0.32 0.43-0.13 1.55 2.31 4.18 3.83 7.16 3.83q1.69-0.01 3.17-0.6c-1.95-3.95-6.01-6.67-10.7-6.69-6.59-0.03-12.01 5.32-12.06 11.9q-0.01 1.99 0.58 3.79c2.83-0.24 5.61-1.44 7.77-3.61 2.36-2.35 3.57-5.41 3.65-8.49z"/>
		</clipPath>
		<filter x="-50%" y="-50%" width="200%" height="200%" id="f1"> <feGaussianBlur stdDeviation="5"/> </filter>
		<clipPath clipPathUnits="userSpaceOnUse" id="cp2">
			<path d="m11.94 28c6.59 0.03 12.01-5.31 12.06-11.9q0.01-1.99-0.58-3.78c-2.83 0.23-5.6 1.43-7.77 3.6-2.36 2.35-3.57 5.41-3.65 8.5 0 0.23-0.3 0.31-0.43 0.12-1.55-2.31-4.18-3.82-7.16-3.82q-1.69 0-3.17 0.6c1.95 3.94 6.01 6.66 10.7 6.68z"/>
		</clipPath>
		<filter x="-50%" y="-50%" width="200%" height="200%" id="f2"> <feGaussianBlur stdDeviation="4"/> </filter>
	</defs>
	<style>
		.s0 { fill: #1812ff } 
		.s1 { filter: url(#f1);fill: #3cd1ee } 
		.s2 { filter: url(#f1);fill: #cb19ea } 
		.s3 { filter: url(#f2);fill: #ff0833 } 
	</style>
	<g>
		<path class="s0" d="m11.9 28c6.6 0 12-5.3 12.1-11.9q0-2-0.6-3.8c-2.8 0.3-5.6 1.5-7.8 3.6-2.3 2.4-3.5 5.4-3.6 8.5 0 0.2-0.3 0.3-0.4 0.1-1.6-2.3-4.2-3.8-7.2-3.8q-1.7 0-3.2 0.6c2 4 6 6.7 10.7 6.7z"/>
		<path class="s0" d="m12 7.6c0-0.2 0.3-0.3 0.4-0.1 1.6 2.3 4.2 3.8 7.2 3.8q1.7 0 3.2-0.6c-2-4-6-6.7-10.7-6.7-6.6 0-12 5.3-12.1 11.9q0 2 0.6 3.8c2.8-0.2 5.6-1.4 7.8-3.6 2.3-2.4 3.5-5.4 3.6-8.5z"/>
		<g id="Clip-Path" clip-path="url(#cp1)">
			<g>
				<g>
					<path fill-rule="evenodd" class="s1" d="m2.4 24.6c-6.8 0-12.3-5.5-12.3-12.3 0-6.8 5.5-12.2 12.3-12.2 6.7 0 12.2 5.4 12.2 12.2 0 6.8-5.5 12.3-12.2 12.3z"/>
				</g>
				<g>
					<path fill-rule="evenodd" class="s2" d="m21.1 38.1c-7.7 0-13.9-6.2-13.9-14 0-7.7 6.2-14 13.9-14 7.8 0 14 6.3 14 14 0 7.8-6.2 14-14 14z"/>
				</g>
			</g>
		</g>
		<g id="Clip-Path" clip-path="url(#cp2)">
			<g>
				<g>
					<path fill-rule="evenodd" class="s3" d="m16.7 14.8c0-4.2 3.2-7.6 7.2-7.6 4.1 0 7.3 3.4 7.3 7.6 0 4.2-3.2 7.6-7.3 7.6-4 0-7.2-3.4-7.2-7.6z"/>
				</g>
			</g>
		</g>
	</g>
</svg>