<?xml version="1.0" encoding="UTF-8"?>
<!DOCTYPE svg PUBLIC "-//W3C//DTD SVG 1.1//EN" "http://www.w3.org/Graphics/SVG/1.1/DTD/svg11.dtd">
<svg xmlns="http://www.w3.org/2000/svg" version="1.1" width="64px" height="64px" style="shape-rendering:geometricPrecision; text-rendering:geometricPrecision; image-rendering:optimizeQuality; fill-rule:evenodd; clip-rule:evenodd" xmlns:xlink="http://www.w3.org/1999/xlink">
<g><path style="opacity:0.881" fill="#fefffe" d="M 27.5,1.5 C 31.2148,1.42305 34.8815,1.75638 38.5,2.5C 40.6237,8.66206 41.957,14.9954 42.5,21.5C 35.1667,21.5 27.8333,21.5 20.5,21.5C 21.043,14.9954 22.3763,8.66206 24.5,2.5C 25.791,2.73731 26.791,2.40397 27.5,1.5 Z"/></g>
<g><path style="opacity:0.81" fill="#fefffe" d="M 19.5,3.5 C 20.5,3.5 21.5,3.5 22.5,3.5C 20.5481,9.35743 19.2147,15.3574 18.5,21.5C 13.456,21.8275 8.45604,21.4941 3.5,20.5C 6.82717,12.8424 12.1605,7.17576 19.5,3.5 Z"/></g>
<g><path style="opacity:0.804" fill="#fefffe" d="M 40.5,3.5 C 49.6202,5.94867 55.9535,11.6153 59.5,20.5C 54.544,21.4941 49.544,21.8275 44.5,21.5C 43.4814,15.426 42.1481,9.42603 40.5,3.5 Z"/></g>
<g><path style="opacity:0.912" fill="#fefffe" d="M 2.5,23.5 C 7.5,23.5 12.5,23.5 17.5,23.5C 17.6657,27.8461 17.499,32.1794 17,36.5C 12.5678,39.1654 7.73444,40.1654 2.5,39.5C 1.16667,34.1667 1.16667,28.8333 2.5,23.5 Z"/></g>
<g><path style="opacity:0.949" fill="#fefffe" d="M 19.5,23.5 C 27.5,23.5 35.5,23.5 43.5,23.5C 43.5,28.8333 43.5,34.1667 43.5,39.5C 37.8333,39.5 32.1667,39.5 26.5,39.5C 27.4455,34.1057 25.4455,32.4391 20.5,34.5C 19.5108,30.8927 19.1774,27.226 19.5,23.5 Z"/></g>
<g><path style="opacity:0.934" fill="#fefffe" d="M 45.5,23.5 C 50.5,23.5 55.5,23.5 60.5,23.5C 61.8333,28.8333 61.8333,34.1667 60.5,39.5C 55.5,39.5 50.5,39.5 45.5,39.5C 45.5,34.1667 45.5,28.8333 45.5,23.5 Z"/></g>
<g><path style="opacity:0.837" fill="#fefffe" d="M 20.5,35.5 C 22.1667,35.5 23.8333,35.5 25.5,35.5C 22.9743,43.9098 20.141,52.2432 17,60.5C 16,61.8333 15,61.8333 14,60.5C 12.8551,57.5682 12.0218,54.5682 11.5,51.5C 8.43177,50.9782 5.43177,50.1449 2.5,49C 1.54943,48.2825 1.38277,47.4491 2,46.5C 8.31256,42.9331 14.4792,39.2664 20.5,35.5 Z"/></g>
<g><path style="opacity:0.877" fill="#fefffe" d="M 25.5,41.5 C 31.1667,41.5 36.8333,41.5 42.5,41.5C 41.957,48.0046 40.6237,54.3379 38.5,60.5C 33.8333,61.8333 29.1667,61.8333 24.5,60.5C 21.6409,53.992 21.9742,47.6587 25.5,41.5 Z"/></g>
<g><path style="opacity:0.809" fill="#fefffe" d="M 44.5,41.5 C 49.544,41.1725 54.544,41.5059 59.5,42.5C 55.9535,51.3847 49.6202,57.0513 40.5,59.5C 42.4519,53.6426 43.7853,47.6426 44.5,41.5 Z"/></g>
<g><path style="opacity:0.416" fill="#fefffe" d="M 20.5,55.5 C 22.1042,56.287 22.7709,57.6203 22.5,59.5C 21.5,59.5 20.5,59.5 19.5,59.5C 19.4326,58.0413 19.7659,56.7079 20.5,55.5 Z"/></g>
</svg>
